<svg viewBox="0 0 2360 1460" width="2360" height="1460" xmlns="http://www.w3.org/2000/svg" xmlns:xlink="http://www.w3.org/1999/xlink" font-family="Inter, 'Segoe UI', Arial, sans-serif">
  <defs>
    <marker id="mArrSteel" markerWidth="9" markerHeight="9" refX="7" refY="4.5" orient="auto"><path d="M0 0 L9 4.5 L0 9 Z" fill="#35608A"/></marker>
    <marker id="mArrNavy" markerWidth="9" markerHeight="9" refX="7" refY="4.5" orient="auto"><path d="M0 0 L9 4.5 L0 9 Z" fill="#003A5D"/></marker>
    <marker id="mArrSlate" markerWidth="9" markerHeight="9" refX="7" refY="4.5" orient="auto"><path d="M0 0 L9 4.5 L0 9 Z" fill="#5A6472"/></marker>
    <linearGradient id="mCopGrad" x1="0" y1="0" x2="1" y2="1">
      <stop offset="0" stop-color="#6A38F2"/><stop offset="0.5" stop-color="#2A8CEA"/><stop offset="1" stop-color="#30C1A6"/>
    </linearGradient>
    <filter id="mShadow" x="-20%" y="-20%" width="140%" height="140%">
      <feDropShadow dx="0" dy="1" stdDeviation="2.5" flood-color="#0F172A" flood-opacity="0.08"/>
    </filter>
  </defs>

  <rect x="0" y="0" width="2360" height="1460" fill="#EDF0F4"/>

  <!-- ======================= PG&E TITLE BAND ======================= -->
  <rect x="0" y="0" width="2360" height="112" fill="#003A5D"/>
  <rect x="0" y="112" width="2360" height="4" fill="#FDB81E"/>
  <text x="52" y="70" font-size="34" font-weight="800" letter-spacing="2" fill="#FFFFFF">PG&amp;E</text>
  <rect x="176" y="32" width="1.5" height="48" fill="#3D6B8C"/>
  <text x="198" y="56" font-size="16" font-weight="600" fill="#FFFFFF">Core Gas Supply</text>
  <text x="198" y="80" font-size="13" fill="#9FB8CC">Gas Fundamentals &amp; Market Analytics</text>
  <svg x="560" y="34" width="32" height="44" viewBox="0 0 256 342" preserveAspectRatio="xMidYMid meet">
    <title>Power BI</title>
    <defs>
        <path d="M142.222222,14.2222222 C142.222222,6.36750222 148.589867,0 156.444444,0 L241.777778,0 C249.632356,0 256,6.36750222 256,14.2222222 L256,327.111111 C256,334.965689 249.632356,341.333333 241.777778,341.333333 L14.2222222,341.333333 C6.36764444,341.333333 0,334.965689 0,327.111111 L0,184.888889 C0,177.034311 6.36764444,170.666667 14.2222222,170.666667 L71.1114667,170.666667 L71.1114667,99.5555556 C71.1114667,91.7009778 77.4791111,85.3333333 85.3336889,85.3333333 L142.222222,85.3333333 L142.222222,14.2222222 Z" id="microsoftpowerbi_power-bi-path-1"></path>
        <linearGradient x1="42.5926042%" y1="-9.35203125e-07%" x2="57.2448958%" y2="93.1735417%" id="microsoftpowerbi_power-bi-linearGradient-1">
            <stop stop-color="#E6AD10" offset="0%"></stop>
            <stop stop-color="#C87E0E" offset="100%"></stop>
        </linearGradient>
        <linearGradient x1="40.1218519%" y1="0%" x2="62.0283333%" y2="95.5919444%" id="microsoftpowerbi_power-bi-linearGradient-2">
            <stop stop-color="#F6D751" offset="0%"></stop>
            <stop stop-color="#E6AD10" offset="100%"></stop>
        </linearGradient>
        <linearGradient x1="27.7741667%" y1="0%" x2="55.0115278%" y2="96.828125%" id="microsoftpowerbi_power-bi-linearGradient-3">
            <stop stop-color="#F9E589" offset="0%"></stop>
            <stop stop-color="#F6D751" offset="100%"></stop>
        </linearGradient>
    </defs>
    <g>
				<mask id="microsoftpowerbi_mask-2" fill="white">
						<use xlink:href="#microsoftpowerbi_power-bi-path-1"></use>
				</mask>
				<polygon fill="url(#microsoftpowerbi_power-bi-linearGradient-1)" mask="url(#microsoftpowerbi_mask-2)" points="256 0 256 341.333333 142.222222 341.333333 142.222222 0"></polygon>
				<path d="M184.888889,100.977778 L184.888889,342.755556 L71.1111111,342.755556 L71.1111111,86.7555556 L170.666667,86.7555556 C178.521244,86.7555556 184.888889,93.1232 184.888889,100.977778 Z" fill-opacity="0.2" fill="#000000" mask="url(#microsoftpowerbi_mask-2)"></path>
				<path d="M184.888889,106.666667 L184.888889,348.444444 L71.1111111,348.444444 L71.1111111,92.4444444 L170.666667,92.4444444 C178.521244,92.4444444 184.888889,98.8120889 184.888889,106.666667 Z" fill-opacity="0.18" fill="#000000" mask="url(#microsoftpowerbi_mask-2)"></path>
				<path d="M184.888889,99.5555556 L184.888889,341.333333 L71.1111111,341.333333 L71.1111111,85.3333333 L170.666667,85.3333333 C178.521244,85.3333333 184.888889,91.7009778 184.888889,99.5555556 Z" fill="url(#microsoftpowerbi_power-bi-linearGradient-2)" mask="url(#microsoftpowerbi_mask-2)"></path>
				<path d="M0,170.666667 L0,341.333333 L113.777778,341.333333 L113.777778,184.888889 C113.777778,177.034311 107.410133,170.666667 99.5555556,170.666667 L0,170.666667 Z" fill="url(#microsoftpowerbi_power-bi-linearGradient-3)" mask="url(#microsoftpowerbi_mask-2)"></path>
		</g>
</svg>
  <text x="610" y="60" font-size="28" font-weight="700" fill="#FFFFFF">Portfolio Analyst Dashboard — Power BI Mockup</text>
  <text x="610" y="86" font-size="13" fill="#9FB8CC">Concept layout · illustrative data — July 2026</text>
  <text x="2308" y="58" font-size="13" font-weight="700" letter-spacing="3" fill="#FDB81E" text-anchor="end">INTERNAL</text>
  <text x="2308" y="84" font-size="12" fill="#9FB8CC" text-anchor="end">as of 06:45 PT · Jul 1 gas day</text>

  <!-- ======================= KPI STRIP ======================= -->
  <g filter="url(#mShadow)"><rect x="40" y="146" width="428" height="110" rx="6" fill="#FFFFFF" stroke="#C9CFD8"/></g>
  <text x="64" y="182" font-size="13" font-weight="600" letter-spacing="0.5" fill="#6B7480">MAINTENANCE IMPACT</text>
  <text x="64" y="228" font-size="30" font-weight="700" fill="#B25E09">−120 <tspan font-size="14" font-weight="400" fill="#6B7480">MMcf/d</tspan></text>
  <text x="444" y="228" font-size="13" fill="#B25E09" text-anchor="end">GTN Sta. 14 · thru Jul 08</text>

  <g filter="url(#mShadow)"><rect x="503" y="146" width="428" height="110" rx="6" fill="#FFFFFF" stroke="#C9CFD8"/></g>
  <text x="527" y="182" font-size="13" font-weight="600" letter-spacing="0.5" fill="#6B7480">CORE LOAD — DAY-AHEAD</text>
  <text x="527" y="228" font-size="30" font-weight="700" fill="#003A5D">830 <tspan font-size="14" font-weight="400" fill="#6B7480">MMcf/d</tspan></text>
  <text x="907" y="228" font-size="13" fill="#5A6472" text-anchor="end">+4% vs seasonal normal</text>

  <g filter="url(#mShadow)"><rect x="966" y="146" width="428" height="110" rx="6" fill="#FFFFFF" stroke="#C9CFD8"/></g>
  <text x="990" y="182" font-size="13" font-weight="600" letter-spacing="0.5" fill="#6B7480">PACIFIC STORAGE</text>
  <text x="990" y="228" font-size="30" font-weight="700" fill="#003A5D">312 Bcf</text>
  <text x="1370" y="228" font-size="13" fill="#2E9E5B" text-anchor="end">104% of 5-yr avg</text>

  <g filter="url(#mShadow)"><rect x="1429" y="146" width="428" height="110" rx="6" fill="#FFFFFF" stroke="#C9CFD8"/></g>
  <text x="1453" y="182" font-size="13" font-weight="600" letter-spacing="0.5" fill="#6B7480">SYSTEM DEMAND</text>
  <text x="1453" y="228" font-size="30" font-weight="700" fill="#003A5D">2,740 <tspan font-size="14" font-weight="400" fill="#6B7480">MMcf/d</tspan></text>
  <text x="1833" y="228" font-size="13" fill="#5A6472" text-anchor="end">vs 2,690 10-day avg</text>

  <g filter="url(#mShadow)"><rect x="1892" y="146" width="428" height="110" rx="6" fill="#FFFFFF" stroke="#C9CFD8"/></g>
  <text x="1916" y="182" font-size="13" font-weight="600" letter-spacing="0.5" fill="#6B7480">PIPELINE HEALTH</text>
  <text x="1916" y="228" font-size="30" font-weight="700" fill="#003A5D">6 / 6</text>
  <circle cx="2016" cy="218" r="7" fill="#2E9E5B"/>
  <text x="2296" y="228" font-size="13" fill="#5A6472" text-anchor="end">last run 06:42</text>

  <!-- ======================= HERO · WESTERN SYSTEM SCHEMATIC ======================= -->
  <g filter="url(#mShadow)"><rect x="40" y="286" width="1520" height="720" rx="6" fill="#FFFFFF" stroke="#C9CFD8"/></g>
  <text x="64" y="324" font-size="19" font-weight="600" fill="#0F172A">Western system schematic — flows to PG&amp;E Citygate</text>
  <text x="64" y="348" font-size="13" fill="#6B7480">Basin pricing with 30-day sparklines · transport costs · utilization · citygate disposition (MMcf/d)</text>

  <text x="80" y="388" font-size="11.5" font-weight="700" letter-spacing="1.5" fill="#8A93A0">SUPPLY BASINS</text>
  <text x="560" y="388" font-size="11.5" font-weight="700" letter-spacing="1.5" fill="#8A93A0">BORDER HUBS</text>
  <text x="1290" y="388" font-size="11.5" font-weight="700" letter-spacing="1.5" fill="#8A93A0">DEMAND</text>

  <!-- ==== pipes ==== -->
  <g fill="none" stroke="#35608A" stroke-width="4">
    <path d="M 310 448 L 420 448 Q 434 448 434 462 L 434 479 Q 434 493 448 493 L 548 493" marker-end="url(#mArrSteel)"/>
    <path d="M 310 568 L 420 568 Q 434 568 434 554 L 434 537 Q 434 523 448 523 L 548 523" marker-end="url(#mArrSteel)"/>
    <path d="M 310 688 L 420 688 Q 434 688 434 702 L 434 715 Q 434 729 448 729 L 548 729" marker-end="url(#mArrSteel)"/>
    <path d="M 310 808 L 420 808 Q 434 808 434 794 L 434 773 Q 434 759 448 759 L 548 759" marker-end="url(#mArrSteel)"/>
  </g>
  <g fill="none" stroke="#003A5D" stroke-width="5">
    <path d="M 750 508 L 820 508 Q 834 508 834 522 L 834 559 Q 834 573 848 573 L 888 573" marker-end="url(#mArrNavy)"/>
    <path d="M 750 744 L 820 744 Q 834 744 834 730 L 834 637 Q 834 623 848 623 L 888 623" marker-end="url(#mArrNavy)"/>
    <path d="M 1025 840 L 1025 681" marker-end="url(#mArrNavy)"/>
  </g>
  <g fill="none" stroke="#5A6472" stroke-width="3.5">
    <path d="M 1150 558 L 1216 558 Q 1230 558 1230 544 L 1230 467 Q 1230 453 1244 453 L 1278 453" marker-end="url(#mArrSlate)"/>
    <path d="M 1150 573 L 1278 573" marker-end="url(#mArrSlate)"/>
    <path d="M 1150 618 L 1216 618 Q 1230 618 1230 632 L 1230 679 Q 1230 693 1244 693 L 1278 693" marker-end="url(#mArrSlate)"/>
    <path d="M 1150 638 L 1200 638 Q 1214 638 1214 652 L 1214 799 Q 1214 813 1228 813 L 1278 813" marker-end="url(#mArrSlate)"/>
  </g>

  <!-- ==== pipe labels + utilization bars ==== -->
  <g font-size="12" fill="#3A4453" font-weight="600">
    <text x="316" y="438">GTN · $0.28 · 71%</text>
    <text x="316" y="558">Ruby · $0.24 · 58%</text>
    <text x="316" y="678">EPNG N · $0.31 · 66%</text>
    <text x="316" y="798">EPNG S · $0.35 · 74%</text>
    <text x="756" y="496">Redwood path · $0.34 · 77%</text>
    <text x="756" y="732">Baja path · $0.36 · 79%</text>
  </g>
  <g>
    <rect x="316" y="456" width="96" height="7" rx="3.5" fill="#DDE3EA"/><rect x="316" y="456" width="68" height="7" rx="3.5" fill="#35608A"/>
    <text x="316" y="480" font-size="10.5" fill="#8A93A0">1,420 / 2,000</text>
    <rect x="316" y="576" width="96" height="7" rx="3.5" fill="#DDE3EA"/><rect x="316" y="576" width="56" height="7" rx="3.5" fill="#35608A"/>
    <text x="316" y="600" font-size="10.5" fill="#8A93A0">870 / 1,500</text>
    <rect x="316" y="696" width="96" height="7" rx="3.5" fill="#DDE3EA"/><rect x="316" y="696" width="63" height="7" rx="3.5" fill="#35608A"/>
    <text x="316" y="720" font-size="10.5" fill="#8A93A0">720 / 1,090</text>
    <rect x="316" y="816" width="96" height="7" rx="3.5" fill="#DDE3EA"/><rect x="316" y="816" width="71" height="7" rx="3.5" fill="#35608A"/>
    <text x="316" y="840" font-size="10.5" fill="#8A93A0">610 / 820</text>
    <rect x="756" y="514" width="96" height="7" rx="3.5" fill="#DDE3EA"/><rect x="756" y="514" width="74" height="7" rx="3.5" fill="#003A5D"/>
    <text x="756" y="540" font-size="10.5" fill="#8A93A0">1,650 / 2,150</text>
    <rect x="756" y="750" width="96" height="7" rx="3.5" fill="#DDE3EA"/><rect x="756" y="750" width="76" height="7" rx="3.5" fill="#003A5D"/>
    <text x="756" y="776" font-size="10.5" fill="#8A93A0">900 / 1,140</text>
  </g>

  <!-- ==== supply basin nodes ==== -->
  <g filter="url(#mShadow)"><rect x="80" y="396" width="230" height="104" rx="6" fill="#F6F8FA" stroke="#C9CFD8"/></g>
  <rect x="80" y="406" width="4" height="84" fill="#35608A"/>
  <text x="102" y="428" font-size="15" font-weight="600" fill="#0F172A">AECO / NIT</text>
  <text x="102" y="464" font-size="20" font-weight="700" fill="#003A5D">$1.85</text>
  <polyline points="198,456 211,460 224,458 237,464 250,462 263,468 276,466 290,473" fill="none" stroke="#35608A" stroke-width="2" stroke-linecap="round"/>
  <circle cx="290" cy="473" r="2.8" fill="#35608A"/>

  <g filter="url(#mShadow)"><rect x="80" y="516" width="230" height="104" rx="6" fill="#F6F8FA" stroke="#C9CFD8"/></g>
  <rect x="80" y="526" width="4" height="84" fill="#35608A"/>
  <text x="102" y="548" font-size="15" font-weight="600" fill="#0F172A">Rockies — Opal</text>
  <text x="102" y="584" font-size="20" font-weight="700" fill="#003A5D">$3.10</text>
  <polyline points="198,590 211,588 224,584 237,586 250,580 263,578 276,574 290,572" fill="none" stroke="#35608A" stroke-width="2" stroke-linecap="round"/>
  <circle cx="290" cy="572" r="2.8" fill="#35608A"/>

  <g filter="url(#mShadow)"><rect x="80" y="636" width="230" height="104" rx="6" fill="#F6F8FA" stroke="#C9CFD8"/></g>
  <rect x="80" y="646" width="4" height="84" fill="#35608A"/>
  <text x="102" y="668" font-size="15" font-weight="600" fill="#0F172A">San Juan</text>
  <text x="102" y="704" font-size="20" font-weight="700" fill="#003A5D">$3.25</text>
  <polyline points="198,712 211,708 224,710 237,704 250,702 263,698 276,696 290,692" fill="none" stroke="#35608A" stroke-width="2" stroke-linecap="round"/>
  <circle cx="290" cy="692" r="2.8" fill="#35608A"/>

  <g filter="url(#mShadow)"><rect x="80" y="756" width="230" height="104" rx="6" fill="#F6F8FA" stroke="#C9CFD8"/></g>
  <rect x="80" y="766" width="4" height="84" fill="#35608A"/>
  <text x="102" y="788" font-size="15" font-weight="600" fill="#0F172A">Permian — Waha</text>
  <text x="102" y="824" font-size="20" font-weight="700" fill="#003A5D">$1.95</text>
  <polyline points="198,830 211,838 224,826 237,840 250,824 263,834 276,820 290,828" fill="none" stroke="#35608A" stroke-width="2" stroke-linecap="round"/>
  <circle cx="290" cy="828" r="2.8" fill="#35608A"/>

  <!-- ==== border hub nodes ==== -->
  <g filter="url(#mShadow)"><rect x="560" y="460" width="190" height="96" rx="6" fill="#F6F8FA" stroke="#C9CFD8"/></g>
  <rect x="560" y="470" width="4" height="76" fill="#5A6472"/>
  <text x="582" y="490" font-size="14.5" font-weight="600" fill="#0F172A">Malin</text>
  <text x="582" y="524" font-size="18" font-weight="700" fill="#003A5D">$3.55</text>
  <polyline points="664,528 674,525 684,527 694,522 704,520 714,517 724,514 734,512" fill="none" stroke="#5A6472" stroke-width="2" stroke-linecap="round"/>
  <circle cx="734" cy="512" r="2.8" fill="#5A6472"/>

  <g filter="url(#mShadow)"><rect x="560" y="696" width="190" height="96" rx="6" fill="#F6F8FA" stroke="#C9CFD8"/></g>
  <rect x="560" y="706" width="4" height="76" fill="#5A6472"/>
  <text x="582" y="726" font-size="14.5" font-weight="600" fill="#0F172A">Topock</text>
  <text x="582" y="760" font-size="18" font-weight="700" fill="#003A5D">$3.70</text>
  <polyline points="664,764 674,762 684,759 694,760 704,756 714,753 724,750 734,748" fill="none" stroke="#5A6472" stroke-width="2" stroke-linecap="round"/>
  <circle cx="734" cy="748" r="2.8" fill="#5A6472"/>

  <!-- ==== PG&E Citygate node ==== -->
  <g filter="url(#mShadow)"><rect x="900" y="523" width="250" height="150" rx="8" fill="#003A5D"/></g>
  <text x="1025" y="556" font-size="15" font-weight="700" letter-spacing="1.5" fill="#FFFFFF" text-anchor="middle">PG&amp;E CITYGATE</text>
  <text x="1025" y="598" font-size="30" font-weight="700" fill="#FDB81E" text-anchor="middle">$4.05</text>
  <text x="1025" y="622" font-size="12.5" fill="#B9CBDA" text-anchor="middle">+$0.65 vs Henry Hub</text>
  <polyline points="940,654 964,650 988,652 1012,646 1036,648 1060,642 1084,638 1110,636" fill="none" stroke="#FDB81E" stroke-width="2.5" stroke-linecap="round"/>
  <circle cx="1110" cy="636" r="3" fill="#FDB81E"/>

  <!-- ==== CA production node ==== -->
  <rect x="900" y="846" width="250" height="56" rx="6" fill="#FAFBFC" stroke="#A7B0BC" stroke-dasharray="6 5" stroke-width="1.4"/>
  <text x="1025" y="870" font-size="13.5" font-weight="600" fill="#3A4453" text-anchor="middle">CA onshore production</text>
  <text x="1025" y="890" font-size="12.5" fill="#6B7480" text-anchor="middle">190 MMcf/d</text>

  <!-- ==== demand nodes ==== -->
  <g filter="url(#mShadow)"><rect x="1284" y="411" width="230" height="84" rx="6" fill="#F6F8FA" stroke="#C9CFD8"/></g>
  <rect x="1284" y="421" width="4" height="64" fill="#0F6CBD"/>
  <text x="1306" y="435" font-size="14.5" font-weight="600" fill="#0F172A">Core (res / comm)</text>
  <text x="1306" y="465" font-size="16" font-weight="700" fill="#003A5D">830 <tspan font-size="11.5" font-weight="400" fill="#6B7480">MMcf/d</tspan></text>
  <polyline points="1424,474 1434,472 1444,475 1454,471 1464,473 1474,469 1484,470 1494,468" fill="none" stroke="#0F6CBD" stroke-width="2" stroke-linecap="round"/>
  <circle cx="1494" cy="468" r="2.8" fill="#0F6CBD"/>

  <g filter="url(#mShadow)"><rect x="1284" y="531" width="230" height="84" rx="6" fill="#F6F8FA" stroke="#C9CFD8"/></g>
  <rect x="1284" y="541" width="4" height="64" fill="#5A6472"/>
  <text x="1306" y="555" font-size="14.5" font-weight="600" fill="#0F172A">Industrial</text>
  <text x="1306" y="585" font-size="16" font-weight="700" fill="#003A5D">610 <tspan font-size="11.5" font-weight="400" fill="#6B7480">MMcf/d</tspan></text>
  <polyline points="1424,592 1434,591 1444,593 1454,590 1464,592 1474,589 1484,591 1494,590" fill="none" stroke="#5A6472" stroke-width="2" stroke-linecap="round"/>
  <circle cx="1494" cy="590" r="2.8" fill="#5A6472"/>

  <g filter="url(#mShadow)"><rect x="1284" y="651" width="230" height="84" rx="6" fill="#F6F8FA" stroke="#C9CFD8"/></g>
  <rect x="1284" y="661" width="4" height="64" fill="#C77D0A"/>
  <text x="1306" y="675" font-size="14.5" font-weight="600" fill="#0F172A">Electric generation</text>
  <text x="1306" y="705" font-size="16" font-weight="700" fill="#003A5D">1,040 <tspan font-size="11.5" font-weight="400" fill="#6B7480">MMcf/d</tspan></text>
  <polyline points="1424,716 1434,714 1444,715 1454,711 1464,708 1474,706 1484,702 1494,699" fill="none" stroke="#C77D0A" stroke-width="2" stroke-linecap="round"/>
  <circle cx="1494" cy="699" r="2.8" fill="#C77D0A"/>

  <g filter="url(#mShadow)"><rect x="1284" y="771" width="230" height="84" rx="6" fill="#F6F8FA" stroke="#C9CFD8"/></g>
  <rect x="1284" y="781" width="4" height="64" fill="#038387"/>
  <text x="1306" y="795" font-size="14.5" font-weight="600" fill="#0F172A">Storage injection</text>
  <text x="1306" y="825" font-size="16" font-weight="700" fill="#003A5D">260 <tspan font-size="11.5" font-weight="400" fill="#6B7480">MMcf/d</tspan></text>
  <polyline points="1424,836 1434,834 1444,833 1454,835 1464,831 1474,829 1484,830 1494,828" fill="none" stroke="#038387" stroke-width="2" stroke-linecap="round"/>
  <circle cx="1494" cy="828" r="2.8" fill="#038387"/>

  <text x="800" y="984" font-size="12.5" font-style="italic" fill="#8A93A0" text-anchor="middle">Illustrative snapshot — sparklines show trailing 30 days · live tiles bind to SharePoint current/ data · supply 2,740 = demand 2,740 MMcf/d</text>

  <!-- ======================= RIGHT RAIL · AI MARKET BRIEF (full height) ======================= -->
  <g filter="url(#mShadow)"><rect x="1595" y="286" width="725" height="720" rx="6" fill="#FFFFFF" stroke="#C9CFD8"/></g>
  <path d="M 1631 304 C 1633 312.5 1636 315.5 1644.5 317.5 C 1636 319.5 1633 322.5 1631 331 C 1629 322.5 1626 319.5 1617.5 317.5 C 1626 315.5 1629 312.5 1631 304 Z" fill="url(#mCopGrad)"/>
  <text x="1660" y="324" font-size="17" font-weight="600" fill="#0F172A">AI market brief — fundamentals &amp; regulatory</text>
  <text x="2296" y="324" font-size="12.5" fill="#8A93A0" text-anchor="end">updated 05:58</text>
  <rect x="1619" y="348" width="677" height="1" fill="#E3E8EF"/>

  <text x="1619" y="392" font-size="11.5" font-weight="700" letter-spacing="1.5" fill="#8A93A0">FUNDAMENTALS</text>
  <g fill="#D9DEE6">
    <rect x="1619" y="410" width="640" height="11" rx="5.5"/>
    <rect x="1619" y="438" width="588" height="11" rx="5.5"/>
    <rect x="1619" y="466" width="616" height="11" rx="5.5"/>
    <rect x="1619" y="494" width="480" height="11" rx="5.5"/>
  </g>
  <rect x="1619" y="524" width="677" height="56" rx="6" fill="#8661C5" opacity="0.08"/>
  <rect x="1635" y="538" width="46" height="26" rx="4" fill="#8661C5" opacity="0.18"/>
  <text x="1658" y="556" font-size="11.5" font-weight="700" fill="#6B47A8" text-anchor="middle">KEY</text>
  <g fill="#C9B8E8">
    <rect x="1697" y="540" width="480" height="10" rx="5"/>
    <rect x="1697" y="560" width="380" height="10" rx="5"/>
  </g>

  <text x="1619" y="636" font-size="11.5" font-weight="700" letter-spacing="1.5" fill="#8A93A0">REGULATORY</text>
  <g fill="#D9DEE6">
    <rect x="1619" y="654" width="620" height="11" rx="5.5"/>
    <rect x="1619" y="682" width="564" height="11" rx="5.5"/>
    <rect x="1619" y="710" width="600" height="11" rx="5.5"/>
    <rect x="1619" y="738" width="452" height="11" rx="5.5"/>
  </g>
  <rect x="1619" y="768" width="677" height="56" rx="6" fill="#8661C5" opacity="0.08"/>
  <rect x="1635" y="782" width="46" height="26" rx="4" fill="#8661C5" opacity="0.18"/>
  <text x="1658" y="800" font-size="11.5" font-weight="700" fill="#6B47A8" text-anchor="middle">KEY</text>
  <g fill="#C9B8E8">
    <rect x="1697" y="784" width="500" height="10" rx="5"/>
    <rect x="1697" y="804" width="340" height="10" rx="5"/>
  </g>

  <text x="1619" y="880" font-size="11.5" font-weight="700" letter-spacing="1.5" fill="#8A93A0">WATCH ITEMS</text>
  <g fill="#D9DEE6">
    <rect x="1619" y="898" width="560" height="11" rx="5.5"/>
    <rect x="1619" y="926" width="500" height="11" rx="5.5"/>
  </g>

  <rect x="1619" y="956" width="112" height="26" rx="4" fill="#8661C5" opacity="0.12"/>
  <text x="1675" y="974" font-size="12" font-weight="600" fill="#6B47A8" text-anchor="middle">DAILY AI BRIEF</text>
  <rect x="1743" y="956" width="96" height="26" rx="4" fill="#8661C5" opacity="0.12"/>
  <text x="1791" y="974" font-size="12" font-weight="600" fill="#6B47A8" text-anchor="middle">REG WATCH</text>
  <text x="2296" y="974" font-size="12.5" fill="#8A93A0" text-anchor="end">source docs archived in raw/</text>

  <!-- ======================= BOTTOM ROW ======================= -->
  <!-- B1 Weather outlook — HDD focused -->
  <g filter="url(#mShadow)"><rect x="40" y="1036" width="736" height="300" rx="6" fill="#FFFFFF" stroke="#C9CFD8"/></g>
  <circle cx="64" cy="1070" r="4.5" fill="#038387"/>
  <text x="78" y="1075" font-size="16" font-weight="600" fill="#0F172A">Weather outlook — HDD / CDD, service-area composite</text>
  <!-- CDD bars (light, secondary) -->
  <g fill="#038387" opacity="0.3">
    <rect x="110" y="1234" width="22" height="54" rx="2"/>
    <rect x="170" y="1216" width="22" height="72" rx="2"/>
    <rect x="230" y="1207" width="22" height="81" rx="2"/>
    <rect x="290" y="1180" width="22" height="108" rx="2"/>
    <rect x="350" y="1162" width="22" height="126" rx="2"/>
    <rect x="410" y="1189" width="22" height="99" rx="2"/>
    <rect x="470" y="1207" width="22" height="81" rx="2"/>
    <rect x="530" y="1216" width="22" height="72" rx="2"/>
    <rect x="590" y="1198" width="22" height="90" rx="2"/>
    <rect x="650" y="1171" width="22" height="117" rx="2"/>
  </g>
  <!-- HDD bars (navy, primary — core load driver) -->
  <g fill="#35608A">
    <rect x="84" y="1261" width="22" height="27" rx="2"/>
    <rect x="144" y="1270" width="22" height="18" rx="2"/>
    <rect x="204" y="1270" width="22" height="18" rx="2"/>
    <rect x="264" y="1279" width="22" height="9" rx="2"/>
    <rect x="324" y="1285" width="22" height="3" rx="1.5"/>
    <rect x="384" y="1279" width="22" height="9" rx="2"/>
    <rect x="444" y="1270" width="22" height="18" rx="2"/>
    <rect x="504" y="1261" width="22" height="27" rx="2"/>
    <rect x="564" y="1270" width="22" height="18" rx="2"/>
    <rect x="624" y="1279" width="22" height="9" rx="2"/>
  </g>
  <path d="M 74 1270 H 680" stroke="#5A6472" stroke-width="1.8" stroke-dasharray="7 6"/>
  <text x="680" y="1262" font-size="11" fill="#5A6472" text-anchor="end">normal · 2 HDD</text>
  <g font-size="10.5" fill="#8A93A0" text-anchor="middle">
    <text x="108" y="1306">7/1</text><text x="168" y="1306">7/2</text><text x="228" y="1306">7/3</text><text x="288" y="1306">7/4</text><text x="348" y="1306">7/5</text><text x="408" y="1306">7/6</text><text x="468" y="1306">7/7</text><text x="528" y="1306">7/8</text><text x="588" y="1306">7/9</text><text x="648" y="1306">7/10</text>
  </g>
  <text x="64" y="1326" font-size="12.5" fill="#6B7480">Daily HDDs (navy) drive core load · CDDs (light) for EG context — composite temps 74–82 °F</text>

  <!-- B2 Pacific storage vs 5-yr range -->
  <g filter="url(#mShadow)"><rect x="811" y="1036" width="736" height="300" rx="6" fill="#FFFFFF" stroke="#C9CFD8"/></g>
  <circle cx="835" cy="1070" r="4.5" fill="#003A5D"/>
  <text x="849" y="1075" font-size="16" font-weight="600" fill="#0F172A">Pacific region storage — vs 5-year range</text>
  <text x="1523" y="1075" font-size="12.5" fill="#2E9E5B" text-anchor="end">104% of 5-yr avg</text>
  <g stroke="#E0E5EB" stroke-width="1">
    <path d="M 885 1100 h616 M 885 1150 h616 M 885 1200 h616 M 885 1250 h616"/>
  </g>
  <g font-size="11" fill="#8A93A0" text-anchor="end">
    <text x="875" y="1104">400</text><text x="875" y="1154">300</text>
    <text x="875" y="1204">200</text><text x="875" y="1254">100 Bcf</text>
  </g>
  <path d="M 885 1150.0 L 941 1157.5 L 997 1165.0 L 1053 1160.0 L 1109 1150.0 L 1165 1140.0 L 1221 1130.0 L 1277 1122.5 L 1333 1116.0 L 1389 1112.5 L 1445 1115.0 L 1501 1130.0 L 1501 1167.5 L 1445 1152.5 L 1389 1150.0 L 1333 1155.0 L 1277 1162.5 L 1221 1171.0 L 1165 1182.5 L 1109 1195.0 L 1053 1205.0 L 997 1207.5 L 941 1200.0 L 885 1190.0 Z" fill="#DDE3EA"/>
  <path d="M 885 1170.0 L 941 1178.8 L 997 1186.3 L 1053 1182.5 L 1109 1172.5 L 1165 1161.3 L 1221 1150.5 L 1277 1142.5 L 1333 1135.5 L 1389 1131.3 L 1445 1133.8 L 1501 1148.8" fill="none" stroke="#8A93A0" stroke-width="2" stroke-dasharray="6 5"/>
  <path d="M 885 1167.5 L 941 1177.5 L 997 1184.0 L 1053 1180.0 L 1109 1169.0 L 1165 1155.0 L 1221 1144.0" fill="none" stroke="#003A5D" stroke-width="3.5" stroke-linecap="round" stroke-linejoin="round"/>
  <circle cx="1221" cy="1144" r="5" fill="#003A5D"/>
  <text x="1233" y="1140" font-size="12" font-weight="600" fill="#003A5D">312 Bcf</text>
  <g font-size="11" fill="#8A93A0" text-anchor="middle">
    <text x="885" y="1272">J</text><text x="941" y="1272">F</text><text x="997" y="1272">M</text><text x="1053" y="1272">A</text><text x="1109" y="1272">M</text><text x="1165" y="1272">J</text><text x="1221" y="1272">J</text><text x="1277" y="1272">A</text><text x="1333" y="1272">S</text><text x="1389" y="1272">O</text><text x="1445" y="1272">N</text><text x="1501" y="1272">D</text>
  </g>
  <rect x="851" y="1310" width="24" height="12" fill="#DDE3EA"/>
  <text x="883" y="1321" font-size="12.5" fill="#3A4453">5-yr range</text>
  <path d="M 980 1316 h30" stroke="#8A93A0" stroke-width="2" stroke-dasharray="6 5"/>
  <text x="1018" y="1321" font-size="12.5" fill="#3A4453">5-yr avg</text>
  <path d="M 1098 1316 h30" stroke="#003A5D" stroke-width="3.5"/>
  <text x="1136" y="1321" font-size="12.5" fill="#3A4453">2026 actual</text>

  <!-- B3 Data freshness -->
  <g filter="url(#mShadow)"><rect x="1582" y="1036" width="738" height="300" rx="6" fill="#FFFFFF" stroke="#C9CFD8"/></g>
  <circle cx="1606" cy="1070" r="4.5" fill="#5A6472"/>
  <text x="1620" y="1075" font-size="16" font-weight="600" fill="#0F172A">Data freshness &amp; pipeline health</text>
  <g font-size="13.5" fill="#3A4453">
    <text x="1620" y="1116">EBB flows &amp; maintenance</text><text x="2210" y="1116" text-anchor="end" fill="#6B7480">06:12</text><circle cx="2250" cy="1111" r="6" fill="#2E9E5B"/>
    <text x="1620" y="1154">Public market datasets</text><text x="2210" y="1154" text-anchor="end" fill="#6B7480">05:47</text><circle cx="2250" cy="1149" r="6" fill="#2E9E5B"/>
    <text x="1620" y="1192">ICE pricing workbook</text><text x="2210" y="1192" text-anchor="end" fill="#6B7480">awaiting upload</text><circle cx="2250" cy="1187" r="6" fill="#E0A00E"/>
    <text x="1620" y="1230">Weather feeds</text><text x="2210" y="1230" text-anchor="end" fill="#6B7480">06:00</text><circle cx="2250" cy="1225" r="6" fill="#2E9E5B"/>
    <text x="1620" y="1268">Fundamentals &amp; regulatory log</text><text x="2210" y="1268" text-anchor="end" fill="#6B7480">05:58</text><circle cx="2250" cy="1263" r="6" fill="#2E9E5B"/>
  </g>
  <text x="1620" y="1320" font-size="12.5" fill="#6B7480">Bound to pipeline_health log — Teams alert fires on failure or stale data</text>

  <!-- ======================= FOOTER ======================= -->
  <rect x="40" y="1372" width="2280" height="1" fill="#D5DBE3"/>
  <text x="40" y="1410" font-size="13" fill="#8A93A0">Mockup — all values illustrative, for layout discussion only</text>
  <text x="2320" y="1410" font-size="13" fill="#8A93A0" text-anchor="end">PG&amp;E Core Gas Supply · Internal</text>
</svg>
